<!-- <svg xmlns="http://www.w3.org/2000/svg" width="220" height="131.741" xmlns:v="https://vecta.io/nano"><defs><linearGradient id="A"><stop stop-color="#8f5e25" offset="0"/><stop stop-color="#fbf4a1" offset=".5"/><stop stop-color="#8f5e25" offset="1"/></linearGradient></defs><path d="M95 8.539L53 22.986V73.27c-1.832-.864-4.27-1.001-6.694-.193-4.192 1.397-6.74 5.078-5.692 8.222s5.295 4.559 9.487 3.162c3.742-1.247 6.166-4.314 5.899-7.195V32l36-12.397v32.681c-1.835-.876-4.286-1.019-6.722-.207-4.192 1.397-6.74 5.078-5.692 8.222s5.295 4.559 9.487 3.162c3.525-1.175 5.878-3.965 5.918-6.692H95V8.539zM19 9v43c-1.869-.892-4.481-.971-6.963-.143-4.269 1.423-6.865 5.172-5.798 8.374s5.393 4.644 9.663 3.221c3.59-1.197 6.047-4.038 6.087-6.816H22V23s12.926 3.741 17 18c0-16.296-14-19-20-32zm18.423 70H2v2h35.476a7.75 7.75 0 0 1-.053-2zM98 81v-2H58.9a8.66 8.66 0 0 1-.591 2H98zM5.078 64H2v2h5.87c-1.081-.501-2.028-1.176-2.792-2zM98 66v-2h-3.769c-.978.804-2.112 1.487-3.377 2H98zm-19.599-2H59v2h22.155a8.74 8.74 0 0 1-2.754-2zM21.09 64a13.4 13.4 0 0 1-3.433 2H50v-2H21.09zM25 49h25v2H25zm-13.875 0H2v2h5.25c1.106-.825 2.395-1.508 3.839-1.99.012-.004.024-.006.036-.01zM59 51h21.822a13.5 13.5 0 0 1 3.507-1.769l.796-.231H59v2zM32.25 34H25v2h8.595c-.427-.712-.877-1.378-1.345-2zM2 34h14v2H2zm57 2h30v-2H59.406l-.406.14zm-17.449 0H50v-2h-8.898l.449 2zm-8.817-15h18.028a2.99 2.99 0 0 1 1.263-.851L55.366 19h-24.68l2.048 2zM2 19h14v2H2z" transform="matrix(.941663 0 0 .941663 63.116673 -8.040863)" fill="#fce38f"/><path d="M26.28 34.08c.36 0 1.12.16 1.12 1.4v3.16c0 1.24-.76 1.4-1.12 1.4h-13.2c-1.76 0-3.28-.24-4.48-.68a6.55 6.55 0 0 1-3.12-2.24c-.8-1-1.36-2.32-1.72-3.92-.36-1.56-.56-3.48-.56-5.72V8.44c0-1.28.8-1.4 1.16-1.4h3.68c.32 0 1.12.12 1.12 1.4v19.72c0 1.2.04 2.2.2 3 .12.72.36 1.32.68 1.76.28.44.68.72 1.16.88.56.2 1.24.28 2.08.28h13zM60.929 7.04c.32 0 .6.2.72.52.08.32.04.64-.12.92l-12.12 21.4v8.76c0 1.24-.8 1.36-1.12 1.36h-3.68c-.32 0-1.12-.12-1.12-1.36v-8.76l-12-21.4a1.15 1.15 0 0 1-.12-.88c.08-.36.36-.56.72-.56h4.56c.36 0 .84.12 1.16.76l8.72 16 8.8-16.04c.32-.6.8-.72 1.16-.72h4.44zm38.329 31.24c.16.24.2.56.16.96-.08.48-.44.8-.92.8h-4.4c-.36 0-.64-.08-.84-.24-.16-.12-.28-.32-.44-.56l-7.24-12.84h-8.44v12.24c0 1.24-.76 1.4-1.12 1.4h-3.64c-.36 0-1.16-.16-1.16-1.4v-16.8c0-1.24.8-1.36 1.16-1.36h17.4c1.04 0 1.72-.28 2.12-.88.44-.6.64-1.56.64-2.88s-.2-2.28-.64-2.88c-.4-.6-1.08-.88-2.12-.88h-17.4c-.36 0-1.16-.12-1.16-1.36V8.44c0-1.28.8-1.4 1.16-1.4h18.44c2.72 0 4.72.84 5.92 2.56 1.08 1.64 1.68 3.96 1.76 7v.24c-.08 3.08-.68 5.4-1.76 7-1 1.36-2.52 2.2-4.48 2.44zm14.529-31.24c.32 0 1.12.16 1.12 1.4v30.2c0 1.24-.8 1.4-1.12 1.4h-3.68c-.32 0-1.12-.16-1.12-1.4V8.44c0-1.24.8-1.4 1.12-1.4h3.68zm29.809 19.24l6.92 12c.16.2.2.52.16.92-.04.52-.36.84-.92.84h-4.32c-.4 0-.68-.08-.84-.24-.16-.12-.32-.32-.44-.56l-6.24-10.96c-.44-.8-.88-1.32-1.32-1.56-.48-.28-1.2-.4-2.16-.4h-4.04v12.32c0 1.24-.8 1.4-1.12 1.4h-3.68c-.32 0-1.16-.16-1.16-1.4V8.44c0-1.28.84-1.4 1.16-1.4h3.68c.32 0 1.12.12 1.12 1.4V20.4h3.68c.52 0 .96-.04 1.28-.08s.6-.12.84-.24c.2-.12.44-.32.64-.56l.68-1 6.04-10.68c.12-.28.28-.44.44-.56.16-.16.44-.24.88-.24h3.96c.48 0 .8.24.92.68.04.36 0 .68-.12.96l-6.6 11.6-1.08 1.8-.76 1.04c.8.76 1.6 1.84 2.4 3.16zm35.969-5.96c2.08 0 3.68.76 4.76 2.2 1.04 1.44 1.56 3.48 1.56 6.08v3.52c0 2.32-.52 4.2-1.52 5.64-1.04 1.48-2.68 2.24-4.88 2.24h-18.04c-.36 0-1.16-.12-1.16-1.36v-3.2c0-1.24.8-1.36 1.16-1.36h17.08c.68 0 .92-.28 1.08-.52.24-.4.36-.96.36-1.68v-3.44c0-1.96-.8-2.2-1.4-2.2h-12c-1.68 0-3.52-.24-4.76-1.88-1-1.4-1.56-3.64-1.56-6.4v-3.04c0-2.32.52-4.24 1.56-5.68 1.04-1.48 2.64-2.2 4.84-2.2h17.24c.32 0 1.12.12 1.12 1.36v3.2c0 1.24-.8 1.36-1.12 1.36h-16.28c-.68 0-.92.28-1.08.52-.2.4-.32.96-.32 1.68v2.96c0 1.96.76 2.2 1.36 2.2h12z" transform="matrix(1.204259 0 0 1.204259 -3.853629 83.522026)" fill="url(#A)"/></svg> -->
 
<svg viewBox="0 0 500 500" xmlns="http://www.w3.org/2000/svg">
  <defs>
    <linearGradient x1="0" x2="0" y1="0" y2="1" id="gradient-1">
      <stop offset="0" style="stop-color: rgb(143, 94, 37);"/>
      <stop offset="0.5" style="stop-color: rgb(251, 244, 161);"/>
      <stop offset="1" style="stop-color: rgb(143, 94, 37);"/>
    </linearGradient>
    <path id="path-2" d="M 189.509 221.667 C 229.223 221.043 412.286 222.239 268.811 219.794 C 258.823 219.624 261.318 219.793 268.186 219.793 C 273.598 219.793 307.732 207.305 312.519 207.305" style="fill: none;"/>
  </defs>
  <path d="M 296.399 107.327 L 256.849 120.931 L 256.849 168.282 C 255.124 167.468 252.828 167.339 250.546 168.1 C 246.598 169.415 244.199 172.882 245.186 175.842 C 246.173 178.803 250.172 180.135 254.119 178.82 C 257.643 177.645 259.926 174.757 259.674 172.044 L 259.674 129.419 L 293.574 117.745 L 293.574 148.52 C 291.846 147.695 289.538 147.56 287.244 148.325 C 283.297 149.64 280.898 153.107 281.884 156.067 C 282.871 159.028 286.87 160.36 290.818 159.045 C 294.137 157.938 296.353 155.311 296.391 152.743 L 296.399 152.743 L 296.399 107.327 Z M 224.833 107.761 L 224.833 148.252 C 223.073 147.412 220.613 147.338 218.276 148.118 C 214.256 149.458 211.811 152.988 212.816 156.003 C 213.821 159.018 217.895 160.376 221.916 159.036 C 225.296 157.909 227.61 155.234 227.647 152.618 L 227.658 152.618 L 227.658 120.944 C 227.658 120.944 239.83 124.467 243.666 137.894 C 243.666 122.549 230.483 120.002 224.833 107.761 Z M 242.181 173.677 L 208.825 173.677 L 208.825 175.561 L 242.231 175.561 C 242.133 174.938 242.116 174.305 242.181 173.677 Z M 299.224 175.561 L 299.224 173.677 L 262.405 173.677 C 262.296 174.325 262.109 174.958 261.849 175.561 L 299.224 175.561 Z M 211.723 159.552 L 208.825 159.552 L 208.825 161.436 L 214.352 161.436 C 213.334 160.964 212.442 160.328 211.723 159.552 Z M 299.224 161.436 L 299.224 159.552 L 295.675 159.552 C 294.754 160.309 293.686 160.953 292.495 161.436 L 299.224 161.436 Z M 280.769 159.552 L 262.499 159.552 L 262.499 161.436 L 283.362 161.436 C 282.382 160.984 281.501 160.344 280.769 159.552 Z M 226.801 159.552 C 225.823 160.337 224.733 160.972 223.568 161.436 L 254.024 161.436 L 254.024 159.552 L 226.801 159.552 Z M 230.483 145.427 L 254.024 145.427 L 254.024 147.311 L 230.483 147.311 L 230.483 145.427 Z M 217.417 145.427 L 208.825 145.427 L 208.825 147.311 L 213.768 147.311 C 214.81 146.534 216.024 145.891 217.383 145.437 C 217.395 145.433 217.406 145.431 217.417 145.427 Z M 262.499 147.311 L 283.048 147.311 C 284.062 146.597 285.175 146.036 286.351 145.645 L 287.1 145.427 L 262.499 145.427 L 262.499 147.311 Z M 237.31 131.302 L 230.483 131.302 L 230.483 133.186 L 238.576 133.186 C 238.174 132.515 237.751 131.888 237.31 131.302 Z M 208.825 131.302 L 222.008 131.302 L 222.008 133.186 L 208.825 133.186 L 208.825 131.302 Z M 262.499 133.186 L 290.749 133.186 L 290.749 131.302 L 262.882 131.302 L 262.499 131.434 L 262.499 133.186 Z M 246.068 133.186 L 254.024 133.186 L 254.024 131.302 L 245.645 131.302 L 246.068 133.186 Z M 237.766 119.061 L 254.742 119.061 C 255.063 118.695 255.472 118.419 255.931 118.259 L 259.077 117.177 L 235.837 117.177 L 237.766 119.061 Z M 208.825 117.177 L 222.008 117.177 L 222.008 119.061 L 208.825 119.061 L 208.825 117.177 Z" fill="#fce38f"/>
  <path d="M 201.507 221.543 L 200.284 221.553 L 200.222 214.508 Q 200.215 213.673 200.307 212.463 L 200.278 212.464 Q 200.108 213.176 199.972 213.484 L 196.453 221.587 L 195.853 221.592 L 192.202 213.611 Q 192.045 213.26 191.877 212.537 L 191.848 212.537 Q 191.912 213.166 191.924 214.595 L 191.986 221.625 L 190.799 221.636 L 190.708 211.133 L 192.334 211.119 L 195.62 218.415 Q 196.001 219.254 196.114 219.671 L 196.158 219.67 Q 196.466 218.803 196.652 218.377 L 199.877 211.054 L 201.415 211.04 Z M 208.884 221.689 Q 206.65 221.697 205.3 220.231 Q 203.95 218.764 203.941 216.406 Q 203.931 213.871 205.294 212.357 Q 206.658 210.843 209.016 210.833 Q 211.191 210.825 212.527 212.284 Q 213.862 213.744 213.871 216.109 Q 213.881 218.68 212.525 220.18 Q 211.169 221.679 208.884 221.689 Z M 208.933 211.947 Q 207.277 211.954 206.249 213.152 Q 205.222 214.35 205.229 216.291 Q 205.237 218.231 206.249 219.41 Q 207.261 220.589 208.879 220.583 Q 210.608 220.576 211.599 219.444 Q 212.591 218.312 212.583 216.283 Q 212.575 214.203 211.603 213.072 Q 210.632 211.94 208.933 211.947 Z M 220.172 221.655 Q 217.938 221.66 216.591 220.19 Q 215.244 218.721 215.239 216.363 Q 215.233 213.828 216.6 212.317 Q 217.966 210.805 220.325 210.8 Q 222.5 210.795 223.832 212.257 Q 225.165 213.719 225.17 216.085 Q 225.175 218.656 223.816 220.153 Q 222.457 221.65 220.172 221.655 Z M 220.239 211.913 Q 218.584 211.917 217.554 213.113 Q 216.523 214.309 216.528 216.25 Q 216.532 218.191 217.541 219.372 Q 218.551 220.552 220.17 220.549 Q 221.898 220.545 222.892 219.415 Q 223.885 218.285 223.881 216.256 Q 223.877 214.176 222.907 213.043 Q 221.938 211.91 220.239 211.913 Z M 227.309 221.466 L 227.297 210.963 L 230.198 210.96 Q 235.749 210.954 235.755 216.073 Q 235.758 218.505 234.218 219.982 Q 232.678 221.46 230.092 221.463 Z M 228.529 212.075 L 228.538 220.351 L 230.105 220.35 Q 232.171 220.347 233.32 219.24 Q 234.468 218.133 234.466 216.104 Q 234.462 212.068 230.17 212.073 Z M 239.416 221.455 L 238.186 221.455 L 238.179 210.952 L 239.409 210.952 Z M 247.87 212.061 L 243.768 212.062 L 243.77 215.695 L 247.564 215.694 L 247.564 216.8 L 243.77 216.801 L 243.772 221.452 L 242.542 221.453 L 242.537 210.95 L 247.869 210.947 Z M 256.953 210.945 L 253.49 217.567 L 253.491 221.449 L 252.261 221.449 L 252.26 217.597 L 248.882 210.947 L 250.281 210.947 L 252.633 215.692 Q 252.677 215.78 252.89 216.337 L 252.912 216.337 Q 252.985 216.088 253.19 215.692 L 255.649 210.945 Z M 258.667 221.448 L 258.665 211.208 L 265.916 211.207 L 265.918 221.446 Z M 259.751 220.363 L 264.834 220.362 L 264.832 212.291 L 259.749 212.292 Z M 262.793 221.447 L 262.791 211.207 L 270.042 211.206 L 270.044 221.445 Z M 263.877 220.362 L 268.96 220.361 L 268.958 212.29 L 263.875 212.291 Z" transform="matrix(2.914798, 0, 0, 4.256432, -406.171997, -694.491882)" style="fill: url(#gradient-1); white-space: pre;"/>
</svg>