
<svg viewBox="0 0 500 500" xmlns="http://www.w3.org/2000/svg" xmlns:xlink="http://www.w3.org/1999/xlink" xmlns:bx="https://boxy-svg.com">
  <defs>
    <linearGradient x1="0" x2="0" y1="0" y2="1" id="gradient-1">
      <stop offset="0" style="stop-color: rgb(143, 94, 37);"/>
      <stop offset="0.5" style="stop-color: rgb(251, 244, 161);"/>
      <stop offset="1" style="stop-color: rgb(143, 94, 37);"/>
    </linearGradient>
    <path id="path-2" d="M 189.509 221.667 C 229.223 221.043 412.286 222.239 268.811 219.794 C 258.823 219.624 261.318 219.793 268.186 219.793 C 273.598 219.793 307.732 207.305 312.519 207.305" style="fill: none;"/>
  </defs>
  <path d="M 296.399 107.327 L 256.849 120.931 L 256.849 168.282 C 255.124 167.468 252.828 167.339 250.546 168.1 C 246.598 169.415 244.199 172.882 245.186 175.842 C 246.173 178.803 250.172 180.135 254.119 178.82 C 257.643 177.645 259.926 174.757 259.674 172.044 L 259.674 129.419 L 293.574 117.745 L 293.574 148.52 C 291.846 147.695 289.538 147.56 287.244 148.325 C 283.297 149.64 280.898 153.107 281.884 156.067 C 282.871 159.028 286.87 160.36 290.818 159.045 C 294.137 157.938 296.353 155.311 296.391 152.743 L 296.399 152.743 L 296.399 107.327 Z M 224.833 107.761 L 224.833 148.252 C 223.073 147.412 220.613 147.338 218.276 148.118 C 214.256 149.458 211.811 152.988 212.816 156.003 C 213.821 159.018 217.895 160.376 221.916 159.036 C 225.296 157.909 227.61 155.234 227.647 152.618 L 227.658 152.618 L 227.658 120.944 C 227.658 120.944 239.83 124.467 243.666 137.894 C 243.666 122.549 230.483 120.002 224.833 107.761 Z M 242.181 173.677 L 208.825 173.677 L 208.825 175.561 L 242.231 175.561 C 242.133 174.938 242.116 174.305 242.181 173.677 Z M 299.224 175.561 L 299.224 173.677 L 262.405 173.677 C 262.296 174.325 262.109 174.958 261.849 175.561 L 299.224 175.561 Z M 211.723 159.552 L 208.825 159.552 L 208.825 161.436 L 214.352 161.436 C 213.334 160.964 212.442 160.328 211.723 159.552 Z M 299.224 161.436 L 299.224 159.552 L 295.675 159.552 C 294.754 160.309 293.686 160.953 292.495 161.436 L 299.224 161.436 Z M 280.769 159.552 L 262.499 159.552 L 262.499 161.436 L 283.362 161.436 C 282.382 160.984 281.501 160.344 280.769 159.552 Z M 226.801 159.552 C 225.823 160.337 224.733 160.972 223.568 161.436 L 254.024 161.436 L 254.024 159.552 L 226.801 159.552 Z M 230.483 145.427 L 254.024 145.427 L 254.024 147.311 L 230.483 147.311 L 230.483 145.427 Z M 217.417 145.427 L 208.825 145.427 L 208.825 147.311 L 213.768 147.311 C 214.81 146.534 216.024 145.891 217.383 145.437 C 217.395 145.433 217.406 145.431 217.417 145.427 Z M 262.499 147.311 L 283.048 147.311 C 284.062 146.597 285.175 146.036 286.351 145.645 L 287.1 145.427 L 262.499 145.427 L 262.499 147.311 Z M 237.31 131.302 L 230.483 131.302 L 230.483 133.186 L 238.576 133.186 C 238.174 132.515 237.751 131.888 237.31 131.302 Z M 208.825 131.302 L 222.008 131.302 L 222.008 133.186 L 208.825 133.186 L 208.825 131.302 Z M 262.499 133.186 L 290.749 133.186 L 290.749 131.302 L 262.882 131.302 L 262.499 131.434 L 262.499 133.186 Z M 246.068 133.186 L 254.024 133.186 L 254.024 131.302 L 245.645 131.302 L 246.068 133.186 Z M 237.766 119.061 L 254.742 119.061 C 255.063 118.695 255.472 118.419 255.931 118.259 L 259.077 117.177 L 235.837 117.177 L 237.766 119.061 Z M 208.825 117.177 L 222.008 117.177 L 222.008 119.061 L 208.825 119.061 L 208.825 117.177 Z" fill="#fce38f"/>
  <text style="fill: url(#gradient-1); white-space: pre;" transform="matrix(2.914798, 0, 0, 4.256432, -406.172003, -694.491893)" bx:origin="0.541849 0.5"><textPath xlink:href="#path-2">MOODIFY

 </textPath></text>
</svg>